<?xml version="1.0" encoding="UTF-8" standalone="no"?>
<!-- Created with Inkscape (http://www.inkscape.org/) -->
<svg
   xmlns:svg="http://www.w3.org/2000/svg"
   xmlns="http://www.w3.org/2000/svg"
   version="1.0"
   width="708.6687"
   height="599.10602"
   id="svg2808"
   xml:space="preserve"><defs
     id="defs2811" /><g
     transform="matrix(1.25,0,0,-1.25,-17.71218,671.985)"
     id="g2817"><path
       d="M 53.89512,111.71352 L 53.88744,100.60224 C 53.88096,99.78192 53.32584,99.11064 52.57968,99.11064 C 52.50648,99.11064 52.50648,99.11064 52.43064,99.11064 C 48.4884,99.48384 39.85776,100.22904 34.2648,100.22904 C 33.37032,100.22904 32.53968,99.85584 32.72064,98.81352 C 32.81256,98.29032 33.34968,97.76808 35.48256,96.64968 L 46.00128,91.05648 C 51.6768,88.00032 54.48096,83.45064 55.25904,78.9768 C 57.76032,64.58448 46.53192,58.39416 33.63,58.39416 C 27.21744,58.39416 21.828744,59.3652 17.655936,60.63192 C 17.021256,60.85512 16.209384,61.22808 16.094064,61.89936 C 16.080936,61.97448 16.067808,62.0484 16.05468,62.12448 L 16.062192,73.23384 C 16.068744,74.05584 16.697808,74.7252 17.519064,74.7252 C 17.593128,74.7252 17.593128,74.7252 17.667192,74.7252 C 20.777808,74.42712 28.77552,73.45872 33.69744,73.45872 C 35.41224,73.45872 36.69936,74.20416 36.3768,76.06872 C 36.27192,76.66416 35.79552,77.26224 34.3848,78.08256 L 23.19,84.56904 C 17.712192,87.77616 15.277512,92.7732 14.537808,97.02288 C 12.127512,110.8932 21.878448,115.29288 34.33128,115.29288 C 40.7448,115.29288 49.12872,114.24936 52.44288,113.20512 C 53.1516,112.98096 53.74032,112.60776 53.85552,111.93744 C 53.86872,111.86352 53.86872,111.86352 53.88288,111.78744 L 53.89512,111.71352"
       id="path2823"
       style="fill:#2747a3;fill-opacity:1;fill-rule:nonzero;stroke:none" /><path
       d="M 106.82064,97.8432 L 106.72584,60.63192 C 106.71936,59.8116 105.94128,59.14032 105.12,59.14032 L 90.57936,59.14032 C 89.83416,59.14032 89.29512,59.6616 89.17872,60.33288 C 89.16552,60.40776 89.15352,60.48192 89.14032,60.55776 L 89.12712,60.63192 L 89.14512,75.54552 L 78.10776,75.54552 L 78.09,60.63192 C 78.08352,59.8116 77.38032,59.14032 76.55904,59.14032 L 62.0184,59.14032 C 61.79352,59.14032 61.55808,59.21448 61.39512,59.28936 C 60.9084,59.51352 60.63384,59.8116 60.54288,60.33288 C 60.53064,60.40776 60.51744,60.48192 60.50448,60.55776 L 60.49128,60.63192 L 60.5868,97.8432 C 60.61416,113.13096 70.23096,115.29288 80.67,115.29288 L 86.78616,115.29288 C 95.3616,115.29288 104.5884,112.83288 106.45416,102.09384 C 106.67448,100.82616 106.8468,99.40872 106.82064,97.8432 z M 86.71968,100.22904 L 80.60448,100.22904 C 78.74064,100.22904 78.23352,99.70776 78.18552,97.8432 L 78.1068,89.71512 L 89.14416,89.71512 L 89.22192,97.8432 C 89.23128,98.2152 89.17872,98.51448 89.14032,98.7384 C 88.94712,99.85584 88.21032,100.22904 86.71968,100.22904"
       id="path2825"
       style="fill:#2747a3;fill-opacity:1;fill-rule:nonzero;stroke:none" /><path
       d="M 160.79808,96.72384 L 160.75872,95.2332 C 160.48872,86.06064 155.90256,82.40616 152.16192,80.76552 L 162.40416,61.30224 C 162.51744,61.07904 162.5568,60.85512 162.5832,60.7068 C 162.75192,59.73744 161.95968,59.14032 161.28936,59.14032 L 145.6284,59.14032 C 144.80808,59.14032 144.53064,59.88648 144.17616,60.63192 L 135.31416,78.15648 L 132.48,78.15648 L 132.46872,60.63192 C 132.46224,59.8116 131.75904,59.14032 130.93776,59.14032 L 116.39712,59.14032 C 115.65096,59.14032 115.03872,59.6616 114.90936,60.40776 C 114.89616,60.48192 114.8832,60.55776 114.87,60.63192 L 114.97968,108.06 C 114.9948,112.68384 116.23128,113.72616 120.21648,114.3984 C 122.76192,114.7716 131.3952,115.29288 136.54128,115.29288 C 150.11352,115.29288 158.87352,110.37192 160.53192,100.82616 C 160.75224,99.55872 160.84968,98.14128 160.79808,96.72384 z M 138.12552,100.60224 L 132.53256,100.60224 L 132.52416,91.20648 L 138.11712,91.20648 C 141.84552,91.20648 143.22384,93.14616 143.24808,95.15904 L 143.28648,96.64968 C 143.29584,97.02288 143.24352,97.32096 143.19288,97.62 C 142.86744,99.48384 141.33192,100.60224 138.12552,100.60224"
       id="path2827"
       style="fill:#2747a3;fill-opacity:1;fill-rule:nonzero;stroke:none" /><path
       d="M 257.532,111.71352 L 257.5248,100.60224 C 257.5176,99.78192 256.9632,99.11064 256.2168,99.11064 C 256.1424,99.11064 256.1424,99.11064 256.068,99.11064 C 252.1248,99.48384 243.4944,100.22904 237.90096,100.22904 C 237.00648,100.22904 236.17584,99.85584 236.35872,98.81352 C 236.44872,98.29032 236.9868,97.76808 239.11968,96.64968 L 249.6384,91.05648 C 255.3144,88.00032 258.1176,83.45064 258.8952,78.9768 C 261.3984,64.58448 250.1664,58.39416 237.26712,58.39416 C 230.8548,58.39416 225.46584,59.3652 221.2932,60.63192 C 220.6584,60.85512 219.84744,61.22808 219.73032,61.89936 C 219.71712,61.97448 219.70416,62.0484 219.69096,62.12448 L 219.70032,73.23384 C 219.7068,74.05584 220.33512,74.7252 221.1552,74.7252 C 221.22936,74.7252 221.22936,74.7252 221.30352,74.7252 C 224.41416,74.42712 232.41192,73.45872 237.33384,73.45872 C 239.0484,73.45872 240.336,74.20416 240.012,76.06872 C 239.90808,76.66416 239.43192,77.26224 238.02288,78.08256 L 226.82808,84.56904 C 221.3484,87.77616 218.91384,92.7732 218.17584,97.02288 C 215.7648,110.8932 225.5148,115.29288 237.96744,115.29288 C 244.38,115.29288 252.7656,114.24936 256.0776,113.20512 C 256.7904,112.98096 257.376,112.60776 257.4912,111.93744 C 257.5056,111.86352 257.5056,111.86352 257.5176,111.78744 L 257.532,111.71352"
       id="path2829"
       style="fill:#2747a3;fill-opacity:1;fill-rule:nonzero;stroke:none" /><path
       d="M 213.19032,95.82936 L 213.20616,95.30808 C 213.7716,78.75288 199.7352,75.8448 189.2952,75.8448 C 187.80552,75.8448 186.97224,75.91872 184.79712,75.99288 L 184.78128,60.63192 C 184.77384,59.8116 184.07064,59.14032 183.25032,59.14032 L 168.93288,59.14032 C 168.2616,59.14032 167.53872,59.4384 167.42064,60.10968 C 167.4084,60.1848 167.39616,60.25968 167.3832,60.33288 L 167.51448,108.06 C 167.53224,112.68384 168.7668,113.72616 172.75224,114.3984 C 176.52648,114.9948 183.93288,115.29288 189.0768,115.29288 C 199.1448,115.29288 210.71712,111.34032 212.84352,99.11064 C 213.0252,98.06712 213.20712,97.02288 213.19032,95.82936 z M 189.39288,100.60224 L 184.84416,100.60224 L 184.80384,90.5352 L 189.3516,90.5352 C 193.15512,90.5352 195.86616,92.10192 195.75552,95.30808 L 195.74064,95.82936 C 195.7632,96.1284 195.71064,96.42744 195.65904,96.72384 C 195.18096,99.48384 192.82224,100.60224 189.39288,100.60224"
       id="path2831"
       style="fill:#2747a3;fill-opacity:1;fill-rule:nonzero;stroke:none" /><path
       d="M 309.7392,98.9616 L 309.7224,97.76808 C 309.6312,93.14616 307.9152,89.71512 304.5624,87.55224 C 307.1232,85.6884 309.264,81.95904 309.8352,78.67776 C 309.9384,78.08256 309.9696,77.4852 309.9816,76.9632 L 309.9768,76.14288 C 309.8784,60.40776 296.8776,58.39416 284.724,58.39416 C 282.0384,58.39416 273.8088,58.5432 269.7264,59.28936 C 266.568,59.88648 265.1568,60.7068 264.7176,63.24096 C 264.6,63.91224 264.5928,64.80744 264.5736,65.77776 L 264.6216,107.98512 C 264.636,112.60776 265.9344,113.72616 269.9184,114.3984 C 273.6192,114.9948 282.2184,115.29288 284.9016,115.29288 C 298.2504,115.29288 307.8552,111.93744 309.516,102.39192 C 309.696,101.3484 309.756,100.15512 309.7392,98.9616 z M 287.892,81.36288 L 281.7744,81.36288 L 281.7384,72.56352 L 287.8536,72.56352 C 291.8064,72.56352 293.0832,74.65128 293.0808,76.8132 L 293.0784,77.26224 C 293.1,77.55936 293.0352,77.93256 292.9824,78.23064 C 292.6464,80.16936 291.2472,81.36288 287.892,81.36288 z M 287.8848,101.1252 L 281.772,101.1252 L 281.8056,92.7732 L 287.9208,92.7732 C 291.7992,92.7732 292.8696,94.33776 292.8912,96.35256 L 292.908,97.54584 C 292.944,97.76808 292.9056,97.9932 292.8672,98.2152 C 292.5936,99.78192 291.2424,101.1252 287.8848,101.1252"
       id="path2833"
       style="fill:#2747a3;fill-opacity:1;fill-rule:nonzero;stroke:none" /><path
       d="M 362.4312,90.08808 L 362.4408,83.6016 C 362.4624,63.31584 351.012,58.39416 338.6328,58.39416 C 327.8208,58.39416 317.8248,63.98712 315.492,77.41032 C 315.156,79.35 315.0288,81.36288 315.012,83.6016 L 315.0048,90.08808 C 315.0096,110.22192 326.4336,115.29288 338.8128,115.29288 C 349.6248,115.29288 359.6064,109.7748 361.9392,96.35256 C 362.2752,94.41288 362.4168,92.32512 362.4312,90.08808 z M 338.748,99.78192 L 338.748,99.78192 C 334.572,99.78192 332.7888,97.17192 332.8272,90.08808 L 332.8344,83.6016 C 332.8344,81.88416 332.9448,80.39256 333.1536,79.2 C 333.8136,75.39744 335.5656,73.90512 338.6976,73.90512 C 342.8736,73.90512 344.6568,76.51584 344.6184,83.6016 L 344.6112,90.08808 C 344.6088,91.80288 344.5008,93.29448 344.292,94.48776 C 343.632,98.29032 341.88,99.78192 338.748,99.78192"
       id="path2835"
       style="fill:#2747a3;fill-opacity:1;fill-rule:nonzero;stroke:none" /><path
       d="M 532.1736,90.08808 L 532.1832,83.6016 C 532.2024,63.31584 520.752,58.3032 509.1624,58.3032 C 499.0392,58.3032 490.4136,62.97936 488.2296,76.40352 C 487.9152,78.34224 487.7952,81.36288 487.7784,83.6016 L 487.7736,90.63744 C 487.7784,110.77128 498.4728,115.75128 510.0624,115.75128 C 520.1856,115.75128 529.4376,111.05616 531.6216,97.63512 C 531.9384,95.6952 532.1592,92.32512 532.1736,90.08808 z M 510.0936,101.33904 L 510.0936,101.33904 C 506.184,101.33904 504.5136,98.72904 504.5496,91.6452 L 504.4656,82.1352 C 504.4656,80.41968 504.5688,78.92712 504.7632,77.7348 C 505.3824,73.93128 507.0216,72.43968 509.9544,72.43968 C 513.864,72.43968 515.532,75.05064 515.4984,82.1352 L 515.58,91.6452 C 515.58,93.36 515.4792,94.8516 515.2824,96.04416 C 514.6656,99.84648 513.0264,101.33904 510.0936,101.33904"
       id="path2837"
       style="fill:#2747a3;fill-opacity:1;fill-rule:nonzero;stroke:none" /><path
       d="M 573.7968,87.7884 C 576.1344,85.9332 580.812,83.22192 581.0904,76.03584 C 581.5464,64.35744 571.0464,58.39416 558.5664,58.39416 C 545.7792,58.39416 535.536,63.9552 535.3008,75.48648 C 535.1664,82.1016 539.2032,85.56936 542.316,88.02936 C 539.292,89.89584 535.596,94.79808 535.8576,101.25384 C 536.2752,111.50808 547.272,115.73064 558.7464,115.66224 C 571.6752,115.58616 579.8304,109.19352 579.9432,97.64808 C 579.984,93.37584 577.0056,89.84064 573.7968,87.7884 z M 558.1296,92.96352 C 563.4504,93.00936 564.0072,96.24936 563.9016,99.10032 C 563.784,102.22416 561.288,103.84416 558.1296,103.84416 C 554.5968,103.84416 552.2376,101.55192 552.5088,97.7016 C 552.6432,95.80128 554.4312,92.9316 558.1296,92.96352 z M 558.5016,81.71064 C 555.6864,81.76032 552.4872,80.39712 552.672,75.78552 C 552.828,71.92968 555.1032,70.39968 558.2616,70.39968 C 561.6816,70.39968 564.4512,72.18552 564.0552,76.56936 C 563.7264,80.2116 561.2784,81.66096 558.5016,81.71064"
       id="path2839"
       style="fill:#2747a3;fill-opacity:1;fill-rule:nonzero;stroke:none" /><path
       d="M 415.752,96.72384 L 415.7136,95.2332 C 415.4424,86.06064 410.8584,82.40616 407.1144,80.76552 L 417.3576,61.30224 C 417.4704,61.07904 417.5112,60.85512 417.5376,60.7068 C 417.7056,59.73744 416.9136,59.14032 416.2416,59.14032 L 400.584,59.14032 C 399.7632,59.14032 399.4824,59.88648 399.132,60.63192 L 390.2688,78.15648 L 387.4344,78.15648 L 387.4224,60.63192 C 387.4152,59.8116 386.712,59.14032 385.8936,59.14032 L 371.3496,59.14032 C 370.6056,59.14032 369.9912,59.6616 369.8616,60.40776 C 369.8496,60.48192 369.8376,60.55776 369.8232,60.63192 L 369.9336,108.06 C 369.9504,112.68384 371.1864,113.72616 375.1704,114.3984 C 377.7168,114.7716 386.3496,115.29288 391.4952,115.29288 C 405.0696,115.29288 413.8272,110.37192 415.4856,100.82616 C 415.7064,99.55872 415.8048,98.14128 415.752,96.72384 z M 393.0792,100.60224 L 387.4848,100.60224 L 387.48,91.20648 L 393.072,91.20648 C 396.7992,91.20648 398.1768,93.14616 398.2008,95.15904 L 398.2392,96.64968 C 398.2488,97.02288 398.1984,97.32096 398.1456,97.62 C 397.8216,99.48384 396.2856,100.60224 393.0792,100.60224"
       id="path2841"
       style="fill:#2747a3;fill-opacity:1;fill-rule:nonzero;stroke:none" /><path
       d="M 464.3136,111.34032 L 464.3544,100.37904 C 464.376,99.40872 463.992,99.03552 463.2456,99.03552 C 463.1712,99.03552 463.0968,99.03552 463.0224,99.03552 C 460.8936,99.26064 454.4664,99.78192 449.8416,99.78192 C 441.7152,99.78192 439.0056,98.2152 439.0128,90.01416 L 439.0224,83.52552 C 439.0344,81.73584 439.1304,80.3184 439.3392,79.12512 C 440.2848,73.68192 443.0832,73.45872 444.8712,73.45872 C 445.5432,73.45872 446.6496,73.53288 447.2952,73.68192 L 447.3504,87.10416 C 447.3552,87.9252 448.0584,88.59648 448.8792,88.59648 L 462.8232,88.59648 C 463.5696,88.59648 464.1072,88.07448 464.2248,87.4032 C 464.2368,87.32904 464.2632,87.17904 464.2752,87.10416 L 464.2176,62.12448 C 464.2152,60.85512 464.004,60.78096 462.6408,60.48192 C 458.1096,59.51352 451.8168,58.39416 444.8064,58.39416 C 436.4544,58.39416 424.308,62.1984 421.6896,77.26224 C 421.3536,79.2 421.128,81.36288 421.1736,83.6748 L 421.1904,90.01416 C 421.2504,112.83288 434.472,115.29288 445.7304,115.29288 C 453.7848,115.29288 459.4608,113.95128 462.7632,112.98096 C 463.7832,112.68384 464.1696,112.60776 464.2728,112.01256 C 464.3112,111.78744 464.3376,111.63936 464.3136,111.34032"
       id="path2843"
       style="fill:#2747a3;fill-opacity:1;fill-rule:nonzero;stroke:none" /><path
       d="M 438.9216,346.212 C 447.936,371.5344 450.0096,386.3544 450.0096,386.3544 C 450.0096,386.3544 443.712,391.3008 431.6952,396.9696 C 435.5976,434.2152 428.0616,452.2632 428.0616,452.2632 C 428.0616,452.2632 386.5056,489.132 299.568,498.0864 C 223.49808,505.92 175.99872,537.588 175.99872,537.588 C 175.99872,537.588 163.7868,518.7648 157.7652,480.1848 C 145.95288,484.5576 137.86128,492.3336 137.86128,492.3336 C 137.86128,492.3336 121.73256,416.1528 164.57352,300.8304 C 212.32968,172.2768 287.0976,128.78808 287.0976,128.78808 C 287.1024,128.78712 287.4168,129.0132 288.0096,129.46512 C 294.5784,133.7268 336.6816,162.18384 385.644,221.4984 C 437.5752,284.4072 455.1864,332.7216 455.1864,332.7216 C 455.1864,332.7216 448.3416,339.6384 438.9216,346.212"
       id="path2845"
       style="fill:#2747a3;fill-opacity:1;fill-rule:nonzero;stroke:none" /><path
       d="M 382.4136,223.97256 C 360.048,196.87512 339.0288,176.21904 322.2672,161.42256 C 339.5736,179.7516 361.8696,206.35584 385.8984,242.6352 C 412.4352,282.7056 428.2272,317.1648 437.4984,342.2928 C 443.256,338.1768 447.9456,334.0008 450.3792,331.728 C 446.1696,321.4248 426.9264,277.8936 382.4136,223.97256"
       id="path2847"
       style="fill:#ffffff;fill-opacity:1;fill-rule:nonzero;stroke:none" /><path
       d="M 422.7456,448.8048 C 420.9264,450.2592 416.9112,453.3 410.7096,457.1352 C 393.3144,468.0744 356.7,486.4344 300.084,492.2664 C 243.7512,498.0672 201.32352,517.1376 185.41968,525.2256 C 182.64552,526.68 180.2952,527.9856 178.38936,529.0824 C 177.19512,526.62 175.71384,523.2912 174.12384,519.1248 C 171.41616,512.2032 167.97192,501.5832 165.26448,487.2336 C 164.9568,485.6304 164.6568,483.9984 164.37192,482.3112 C 158.9532,450.2616 156.88776,396.4344 177.82032,322.008 C 199.05288,246.5136 228.53448,199.36512 249.528,173.10648 C 252.8424,168.96096 256.0488,165.20904 259.1184,161.79384 C 270.3408,149.23968 279.2472,141.9084 283.6632,138.58776 C 284.7384,137.75616 285.7056,137.03712 286.5384,136.4352 C 286.5576,136.4532 286.5792,136.47384 286.5984,136.49064 C 286.6632,136.4484 286.6992,136.42584 286.6992,136.42584 C 286.6992,136.42584 346.188,185.3748 391.6656,283.2432 C 409.6056,321.852 418.656,354.0408 422.8848,379.4544 C 425.1192,391.6488 426.1368,401.9424 426.48,410.2968 C 427.3752,432.1344 423.9864,444.9312 422.7456,448.8048"
       id="path2849"
       style="fill:#ffffff;fill-opacity:1;fill-rule:nonzero;stroke:none" /><path
       d="M 182.97384,516.3432 C 179.82552,508.3632 175.3968,494.568 172.65192,475.0008 C 168.38808,444.612 167.43192,393.72 187.0848,323.8392 C 191.1468,309.396 195.67512,295.452 200.64096,282.0888 C 210.95712,318.8664 245.9016,346.0104 287.2992,346.0104 C 332.3184,346.0104 369.7032,313.9128 376.0848,272.2296 C 378.4848,276.9816 380.856,281.8728 383.1912,286.896 C 408.1248,340.5576 415.092,381.0096 416.5464,405.492 C 417.7488,425.7264 415.4856,438.66 414.3408,443.6664 C 410.5848,446.5224 401.5632,452.856 387.3288,459.672 C 369.5904,468.1656 339.8832,479.172 299.0952,483.372 C 243.1368,489.1368 200.84064,507.4296 182.97384,516.3432"
       id="path2851"
       style="fill:#2747a3;fill-opacity:1;fill-rule:nonzero;stroke:none" /><path
       d="M 316.0056,180.06744 C 306.4272,175.66224 296.616,173.10936 287.2992,173.10936 C 276.972,173.10936 266.8608,174.83256 257.3616,178.08096 C 269.6808,162.70584 280.1232,153.15192 286.188,148.17 C 292.212,153.79032 302.6904,164.1732 315.2784,179.19744 C 315.5184,179.4852 315.7608,179.77512 316.0056,180.06744"
       id="path2853"
       style="fill:#2747a3;fill-opacity:1;fill-rule:nonzero;stroke:none" /><path
       d="M 357.528,286.8024 L 343.9608,278.6856 C 341.1432,280.8408 334.6512,284.9952 329.8152,287.9664 C 323.1576,292.0488 316.9848,295.2576 314.2992,296.868 C 313.3392,299.9592 311.4864,305.7024 309.9312,309.2424 C 308.4432,312.6312 306.4128,316.3632 305.2416,318.4416 C 306.8136,319.4928 311.1408,321.9168 313.3248,323.1192 C 316.1328,324.6672 319.944,326.436 319.944,326.436 C 319.944,326.436 326.7744,324.4992 333.6024,319.8552 C 340.4304,315.2136 345.6792,312.5304 345.6792,312.5304 C 345.6792,312.5304 345.5784,312.6552 345.3888,312.8832 C 339.0576,319.692 331.512,325.3848 323.0856,329.6328 C 317.112,332.388 312.5424,333.6192 312.5424,333.6192 C 312.5424,333.6192 314.7936,331.7832 315.9984,330.0432 C 317.0952,328.4544 303.6432,321.7968 300.9072,320.64 C 297.708,321.1224 292.6488,321.7776 287.4384,322.0128 C 286.7736,322.0416 286.1112,322.056 285.4584,322.056 C 280.1712,322.056 275.3424,321.156 272.7528,320.5704 C 269.5296,322.5 258.948,328.5288 258.948,329.5296 C 258.948,330.4416 262.1016,333.7632 263.916,334.7304 C 262.0896,334.1808 260.2944,333.5664 258.5304,332.892 C 257.6256,332.5464 256.7304,332.1864 255.8448,331.8096 C 245.8752,327.576 236.9748,321.3864 229.64256,313.728 C 231.32904,315.3048 235.11096,316.788 238.49616,318.9624 C 242.7144,321.6696 251.3184,325.2 253.1256,325.2 C 254.9328,325.2 257.0856,324.6936 260.9016,322.5648 C 264.192,320.7312 267.48,317.8896 268.32,317.1432 C 266.82,315.0312 265.4856,312.5376 263.94,309.4368 C 262.2792,306.1056 260.7144,300.4776 259.9032,297.2976 C 257.6592,296.376 251.328,293.6664 244.4928,290.0856 C 237.84648,286.6032 231.29904,281.2344 229.80288,279.5328 L 217.14648,287.3832 C 217.14648,287.3832 210.8184,278.7288 208.62,268.2264 C 208.39872,265.9656 208.2852,263.6712 208.26552,261.3552 C 210.94128,254.7936 214.41384,246.7176 218.85,237.08064 L 229.7016,244.3368 C 232.88064,241.7688 239.55096,237.1668 245.0904,234.2916 C 251.2152,231.1152 257.5128,227.8632 259.8408,226.78224 C 260.3832,224.4816 260.772,220.37808 262.5336,215.41776 C 264.2232,210.66384 265.5456,207.88512 267.0048,205.8048 C 266.1384,204.95256 264.5616,203.08512 261.2808,201.02448 C 257.6976,198.7752 255.2304,197.51712 251.9616,197.51712 C 251.0184,197.51712 250.0032,197.6232 248.8776,197.83968 C 246.2496,198.34584 240.7032,200.6148 236.01552,203.61288 C 236.68512,202.48128 240.0696,198.4452 245.508,194.92416 C 254.2032,189.2952 255.732,188.92416 260.5632,187.16256 C 259.5888,188.3448 257.652,193.02648 258.7464,193.77648 C 260.0184,194.65032 269.6304,200.86776 271.644,202.23192 C 274.0728,201.54192 278.5512,200.64 285.6312,200.52096 C 286.0296,200.51448 286.4232,200.5116 286.8096,200.5116 C 293.76,200.5116 298.2432,201.55224 300.5712,202.29744 C 303.9504,200.19552 314.9784,192.64872 315.3264,191.81616 C 315.6,191.15448 312.852,188.39904 310.4472,186.73584 C 315.9096,188.39352 317.496,188.9148 322.38,191.64096 C 326.2536,194.3184 328.6968,196.40712 329.8848,197.88 C 325.9632,195.90192 322.3824,195.71256 322.3824,195.71256 C 322.3824,195.71256 318.1032,196.3116 313.0848,199.40712 C 309.072,201.88032 306.4896,204.73584 305.0904,206.02776 C 306.6192,208.10712 307.872,210.5484 309.1296,214.06416 C 310.524,217.96416 312.1152,223.26648 312.9552,226.14 C 315.5448,227.35968 321.5016,230.23512 329.2104,234.37512 C 337.0632,238.59192 341.6184,242.1504 343.3968,243.6624 L 356.1216,235.15128 C 356.1216,235.15128 365.3616,244.4352 365.7624,260.3016 C 366.1656,276.1632 357.528,286.8024 357.528,286.8024 z M 343.4232,261.2064 L 343.4232,261.2064 C 343.2648,254.4048 341.6256,249.192 340.824,246.7248 C 338.4768,245.052 334.1904,241.8264 327.9528,238.33512 C 321.1776,234.54192 313.6248,231.2052 311.0208,230.05416 L 287.448,243.4872 L 287.8296,280.5888 C 290.9736,282.3696 294.6504,284.3184 300.2808,287.3064 C 306.8784,290.8104 311.544,292.6632 312.5616,293.1096 C 315.5952,291.564 323.0688,287.6016 327.8352,284.5392 C 332.7624,281.376 340.5408,275.844 342.708,274.3224 C 343.1016,271.5456 343.5696,267.4464 343.4232,261.2064 z M 283.5768,281.22 L 283.5768,281.22 L 282.8064,243.2808 L 262.5984,231.40128 C 260.8992,232.19064 254.4528,234.65256 246.2904,238.7952 C 237.41808,243.3 233.42616,247.7184 230.6748,249.8424 C 230.33448,252.888 229.8684,256.092 229.99968,260.88 C 230.1684,267.0384 231.3216,273.1056 231.6948,275.5584 C 234.1284,277.7496 241.608,283.2864 246.1704,285.9264 C 250.968,288.6984 259.26,292.08 261.9192,293.0496 C 264.2904,291.7056 267.9624,290.0448 272.3736,287.5776 C 277.0464,284.9616 281.256,282.6888 283.5768,281.22"
       id="path2855"
       style="fill:#2747a3;fill-opacity:1;fill-rule:nonzero;stroke:none" /><path
       d="M 248.1528,355.0464 C 232.7748,350.1072 221.5968,339.1536 221.5968,339.1536 L 228.0348,386.4408 L 202.62936,386.4216 L 202.60416,428.604 L 223.14,428.6112 L 223.1532,404.7696 L 231.3384,404.772 L 231.3168,428.6208 L 253.9584,428.6304 L 253.9752,404.7912 L 262.572,404.8008 L 262.5528,428.6376 L 286.3944,428.652 L 286.4304,386.4168 L 279.132,386.4048 L 279.1632,359.5296 C 279.1632,359.5296 263.1264,359.8512 248.1528,355.0464"
       id="path2857"
       style="fill:#ffffff;fill-opacity:1;fill-rule:nonzero;stroke:none" /><path
       d="M 337.8792,350.0208 C 357.528,340.764 363.4752,331.4064 363.4752,331.4064 L 359.1696,386.4408 L 383.5056,386.4216 L 383.5272,428.604 L 364.0632,428.6112 L 364.0488,404.7696 L 355.8624,404.772 L 355.8888,428.6208 L 333.2448,428.6304 L 333.2304,404.7912 L 324.6312,404.8008 L 324.6504,428.6376 L 300.8064,428.652 L 300.7704,386.4168 L 308.0712,386.4048 L 308.028,359.4456 C 308.028,359.4456 321.5064,357.7368 337.8792,350.0208"
       id="path2859"
       style="fill:#ffffff;fill-opacity:1;fill-rule:nonzero;stroke:none" /></g></svg>